# xmcd
#
# Track frame offsets: 
#        150
#        17150
#        34545
#        57615
#        79786
#        103324
#        132827
#        151853
#
# Disc length: 2652 seconds
#
# Revision: 0
# Processed by: cddbd v1.5.2PL0 Copyright (c) Steve Scherf et al.
# Submitted via: ExactAudioCopyFreeDBPlugin 1.0
#
DISCID=610a5a08
DTITLE=Stevie Wonder - Original Musiquarium I [CD2]
DYEAR=1982
DGENRE=Soul
TTITLE0=Higher Ground 
TTITLE1=Sir Duke
TTITLE2=Master Blaster (Jammin') 
TTITLE3=Boogie On Reggae Woman
TTITLE4=That Girl
TTITLE5=Isn't She Lovely 
TTITLE6=I Wish
TTITLE7=Do I Do
EXTD=
EXTT0=
EXTT1=
EXTT2=
EXTT3=
EXTT4=
EXTT5=
EXTT6=
EXTT7=
PLAYORDER=
